# xmcd
#
# Track frame offsets:
#	150
#	15286
#	27437
#	40256
#	54608
#	67433
#	80594
#	98373
#	111482
#	125714
#	137460
#
# Disc length: 2003 seconds
# Revision: 0
# Processed by: cddbd v1.5.2PL0 Copyright (c) Steve Scherf et al.
# Submitted via: dBpowerAMP V12.0
#
DISCID=9507d10b
DTITLE=Junior Sisk - Load The Wagon
DYEAR=2020
DGENRE=Bluegrass
TTITLE0=Get In Line Buddy
TTITLE1=Best Female Actress of the Year
TTITLE2=Hooked On Bluegrass
TTITLE3=Poor Sister Cry
TTITLE4=Lily Dale
TTITLE5=I'm Going There
TTITLE6=Just Load the Wagon
TTITLE7=I'm Lonesome and Blue
TTITLE8=Lover's Farewell
TTITLE9=He Died a Rounder At 21
TTITLE10=Mend This Heart of Mine
EXTD=
EXTT0=
EXTT1=
EXTT2=
EXTT3=
EXTT4=
EXTT5=
EXTT6=
EXTT7=
EXTT8=
EXTT9=
EXTT10=
PLAYORDER=
